{"glyphs":{":":{"x_min":0,"x_max":198,"ha":198,"o":"m 13 66 q 13 96 35 118 q 56 139 86 139 q 116 139 138 118 q 159 96 159 66 q 159 36 138 15 q 116 -7 86 -7 q 56 -7 34 14 q 13 36 13 66 z m 55 366 q 55 396 77 417 q 98 439 128 439 q 158 439 180 417 q 201 396 201 366 q 201 336 180 314 q 158 293 128 293 q 98 293 77 314 q 55 335 55 366 z"},"$":{"x_min":0,"x_max":385,"ha":385,"o":"m 128 -5 q 19 12 19 113 q 19 140 39 163 q 59 186 87 186 q 128 186 128 141 q 128 105 83 83 q 62 72 62 64 q 62 47 80 32 q 97 18 131 12 l 168 278 q 118 317 93 356 q 68 394 68 442 q 68 520 108 572 q 149 623 219 638 l 221 652 l 239 652 q 238 642 237 642 q 245 643 261 643 l 276 643 l 277 652 l 295 652 l 293 641 q 338 633 367 607 q 396 582 396 543 q 396 517 378 499 q 360 480 339 480 q 300 480 300 521 q 300 548 334 567 q 350 576 350 586 q 350 597 334 607 q 319 618 290 623 l 254 363 q 352 292 352 201 q 352 133 311 73 q 271 14 203 -3 l 191 -87 l 173 -87 l 184 -7 l 164 -8 q 151 -8 146 -7 l 135 -87 l 117 -87 z m 235 623 l 203 398 l 238 373 l 273 625 l 259 625 q 249 625 235 623 z m 187 412 l 216 618 q 180 605 160 573 q 139 542 139 509 q 139 457 187 412 z m 149 11 q 154 10 166 10 q 173 10 187 12 l 219 239 q 204 252 185 265 z m 206 19 q 282 56 282 132 q 282 179 235 225 z"},"?":{"x_min":0,"x_max":344,"ha":344,"o":"m 49 66 q 49 96 70 118 q 92 139 122 139 q 152 139 174 118 q 195 96 195 66 q 195 36 174 14 q 152 -7 122 -7 q 92 -7 70 14 q 49 36 49 66 z m 149 189 l 132 189 q 141 263 148 294 q 155 325 173 354 q 191 384 229 418 q 268 454 284 481 q 300 509 300 544 q 300 581 278 602 q 256 623 216 623 q 185 623 157 606 q 129 588 129 576 q 129 569 147 565 q 191 554 191 513 q 191 484 172 466 q 153 448 127 448 q 102 448 87 465 q 72 481 72 508 q 72 561 121 602 q 169 644 231 644 q 292 644 328 604 q 364 565 364 499 q 364 428 332 376 q 300 324 228 273 q 183 241 170 226 q 156 211 149 189 z"},"<":{"x_min":0,"x_max":667,"ha":667,"o":"m 613 72 l 84 295 l 84 353 l 613 576 l 613 506 l 170 324 l 613 141 z"},"'":{"x_min":0,"x_max":278,"ha":278,"o":"m 143 311 l 119 311 l 119 534 q 119 579 141 607 q 163 636 197 636 q 225 636 242 618 q 260 601 260 575 q 260 540 240 501 z"},"=":{"x_min":0,"x_max":667,"ha":667,"o":"m 83 472 l 614 472 l 614 407 l 83 407 z m 83 243 l 614 243 l 614 179 l 83 179 z"},"a":{"x_min":0,"x_max":412,"ha":412,"o":"m 228 99 l 249 249 q 266 366 266 381 q 266 394 258 403 q 250 412 236 412 q 221 412 209 397 q 197 382 190 358 q 183 334 166 209 q 148 83 148 73 q 148 26 174 26 q 192 26 208 45 q 224 64 228 99 z m 235 50 q 202 -7 140 -7 q 96 -7 65 38 q 33 82 33 147 q 33 222 62 290 q 92 357 136 398 q 180 438 234 438 q 262 438 275 415 l 282 430 l 389 430 l 341 88 q 338 73 338 57 q 338 47 343 40 q 348 33 355 33 q 368 33 381 49 q 394 65 402 93 l 419 93 q 391 -7 312 -7 q 252 -7 235 50 z"},"L":{"x_min":0,"x_max":344,"ha":344,"o":"m 79 636 l 291 636 l 289 619 l 244 619 l 159 17 l 177 17 q 222 17 259 59 q 295 101 312 177 l 329 177 l 301 0 l -11 0 l -9 17 l 35 17 l 120 619 l 77 619 z"},"3":{"x_min":0,"x_max":385,"ha":385,"o":"m 115 350 l 169 350 q 229 350 246 388 q 263 426 270 491 q 277 555 277 576 q 277 625 228 625 q 207 625 184 615 q 161 604 161 594 q 161 589 174 582 q 195 570 201 560 q 206 549 206 534 q 206 503 186 485 q 165 466 136 466 q 83 466 83 525 q 83 568 128 605 q 173 643 249 643 q 308 643 351 606 q 395 569 395 523 q 395 462 348 412 q 301 361 221 343 l 221 341 q 292 323 327 283 q 362 243 362 193 q 362 112 297 53 q 232 -7 145 -7 q 87 -7 53 22 q 18 52 18 97 q 18 131 41 156 q 63 180 91 180 q 118 180 134 165 q 149 149 149 122 q 149 84 97 57 q 75 45 75 39 q 75 29 95 20 q 116 10 138 10 q 185 10 203 41 q 221 72 231 143 q 241 214 241 254 q 241 295 227 314 q 213 333 181 333 l 113 333 z"},";":{"x_min":0,"x_max":198,"ha":198,"o":"m 25 -152 l 19 -136 q 75 -104 106 -64 q 137 -24 137 6 q 137 20 127 20 q 123 20 116 13 q 98 -7 68 -7 q 42 -7 28 10 q 13 27 13 56 q 13 89 37 114 q 61 139 95 139 q 128 139 146 115 q 165 91 165 52 q 165 -2 132 -56 q 98 -111 25 -152 z m 55 366 q 55 396 77 417 q 98 439 128 439 q 158 439 180 417 q 201 396 201 366 q 201 336 180 314 q 158 293 128 293 q 98 293 77 314 q 55 335 55 366 z"},"J":{"x_min":0,"x_max":354,"ha":354,"o":"m 186 636 l 406 636 l 404 619 l 359 619 l 288 113 q 274 13 222 -43 q 171 -98 93 -98 q 47 -98 21 -77 q -6 -57 -6 -23 q -6 3 13 22 q 33 40 59 40 q 79 40 91 26 q 103 12 103 -8 q 103 -42 74 -60 q 65 -65 65 -69 q 65 -81 94 -81 q 119 -81 133 -66 q 147 -51 147 -29 q 147 -11 149 3 l 236 619 l 184 619 z"},"V":{"x_min":0,"x_max":458,"ha":458,"o":"m 80 636 l 281 636 l 279 619 l 240 619 l 282 206 l 284 206 l 423 569 q 428 582 428 590 q 428 619 396 619 l 379 619 l 381 636 l 512 636 l 510 619 l 494 619 q 461 619 444 575 l 220 -9 l 184 -9 l 119 619 l 78 619 z"},"\"":{"x_min":0,"x_max":555,"ha":555,"o":"m 400 311 l 376 311 l 376 534 q 376 579 398 607 q 420 636 454 636 q 482 636 500 618 q 517 601 517 575 q 517 540 497 501 z m 165 311 l 141 311 l 141 534 q 141 579 163 607 q 185 636 219 636 q 247 636 265 618 q 282 601 282 575 q 282 540 262 501 z"},"7":{"x_min":0,"x_max":385,"ha":385,"o":"m 123 634 l 435 634 l 432 614 q 387 556 301 419 q 215 283 215 203 q 215 178 226 141 q 237 104 237 81 q 237 43 215 18 q 193 -8 159 -8 q 127 -8 109 11 q 91 30 91 59 q 91 98 122 164 q 153 230 215 324 l 362 543 l 155 543 q 134 543 118 531 q 103 519 81 460 l 62 460 z"},"S":{"x_min":0,"x_max":385,"ha":385,"o":"m 35 198 l 52 198 q 55 99 91 54 q 126 9 177 9 q 219 9 247 41 q 276 73 276 121 q 276 145 264 169 q 251 194 233 213 q 215 233 146 296 q 67 367 67 452 q 67 536 120 590 q 173 644 243 644 q 279 644 318 622 q 338 611 346 611 q 356 611 364 619 q 371 627 371 633 l 371 636 l 387 636 l 363 462 l 346 462 q 344 539 316 583 q 289 627 249 627 q 210 627 185 599 q 159 571 159 524 q 159 462 224 406 q 298 342 318 319 q 338 296 353 263 q 368 229 368 195 q 368 104 313 48 q 257 -8 174 -8 q 126 -8 88 21 q 69 35 59 35 q 34 35 26 0 l 7 0 z"},"}":{"x_min":0,"x_max":394,"ha":394,"o":"m 59 -248 l 59 -226 q 154 -208 154 -133 q 154 -102 142 -55 q 130 -5 130 26 q 130 81 169 126 q 209 171 290 189 l 290 191 q 202 214 165 261 q 129 308 129 352 q 129 378 141 428 q 153 478 153 509 q 153 591 59 608 l 59 631 l 75 631 q 153 631 206 583 q 260 536 260 468 q 260 442 245 384 q 234 344 234 312 q 234 221 329 206 l 329 176 q 234 160 234 67 q 234 36 244 -3 q 259 -62 259 -86 q 259 -149 207 -198 q 154 -248 59 -248 z"},"Z":{"x_min":0,"x_max":365,"ha":365,"o":"m 94 636 l 416 636 l 414 619 l 124 17 l 156 17 q 274 17 337 197 l 355 197 l 320 0 l -10 0 l -8 17 l 282 619 l 240 619 q 130 619 87 453 l 69 453 z"},"x":{"x_min":0,"x_max":375,"ha":375,"o":"m 153 151 l 138 279 q 130 344 127 356 q 125 368 120 375 q 116 382 107 382 q 100 382 86 365 q 73 347 61 319 l 44 319 q 96 439 165 439 q 198 439 221 418 q 243 397 251 305 q 303 386 329 413 q 355 439 373 439 q 393 439 405 424 q 417 410 417 384 q 417 362 403 348 q 389 335 368 335 q 352 335 335 350 q 326 358 319 358 q 308 358 293 335 l 254 278 l 276 96 q 279 71 286 61 q 293 51 302 51 q 327 51 346 114 l 363 114 q 324 -6 242 -6 q 225 -6 209 2 q 193 10 181 27 q 169 43 166 58 q 162 74 156 123 q 104 43 78 19 q 53 -6 30 -6 q 6 -6 -8 8 q -22 22 -22 47 q -22 68 -7 85 q 7 102 27 102 q 47 102 59 88 q 69 77 80 77 q 94 77 106 88 q 118 99 153 151 z"},")":{"x_min":0,"x_max":250,"ha":250,"o":"m -47 -260 l -44 -240 q 42 -156 82 69 q 122 294 122 419 q 122 474 108 529 q 95 583 72 613 l 77 635 q 146 564 181 467 q 216 369 216 263 q 216 127 145 -15 q 75 -157 -47 -260 z"},"&":{"x_min":0,"x_max":510,"ha":510,"o":"m 356 173 q 367 205 378 254 q 400 359 457 359 q 480 359 496 344 q 512 329 512 306 q 512 284 498 269 q 483 254 466 254 q 447 254 431 268 q 421 278 414 278 q 409 278 403 270 q 397 262 395 250 q 384 196 367 153 q 417 62 449 62 q 476 62 500 97 l 508 85 q 488 55 441 26 q 395 -3 363 -3 q 335 -3 297 49 q 243 -3 166 -3 q 108 -3 65 50 q 22 103 22 168 q 22 286 162 360 q 146 430 146 480 q 146 550 192 597 q 238 644 301 644 q 357 644 390 617 q 422 590 422 550 q 422 505 386 469 q 351 433 273 397 q 303 272 356 173 z m 270 412 q 306 431 323 460 q 339 489 339 559 q 339 627 297 627 q 276 627 265 601 q 254 575 254 529 q 254 479 270 412 z m 167 341 q 127 308 127 231 q 127 159 161 104 q 195 50 238 50 q 268 50 286 64 q 212 176 167 341 z"},"_":{"x_min":0,"x_max":500,"ha":500,"o":"m -53 -76 l 465 -76 l 465 -124 l -53 -124 z"},"v":{"x_min":0,"x_max":396,"ha":396,"o":"m 166 -8 q 125 -8 93 21 q 61 49 61 91 q 61 108 63 124 q 94 343 95 352 q 96 360 96 375 q 96 399 79 399 q 65 399 53 383 q 40 367 32 339 l 15 339 q 43 439 122 439 q 159 439 184 415 q 209 391 209 349 q 209 337 207 323 l 177 111 q 173 83 173 68 q 173 50 182 39 q 191 28 205 28 q 235 28 278 79 q 321 131 345 195 q 368 258 368 305 q 368 328 338 337 q 315 343 302 358 q 288 373 288 392 q 288 414 300 427 q 311 439 331 439 q 386 439 386 306 q 386 205 316 99 q 245 -8 166 -8 z"},"O":{"x_min":0,"x_max":438,"ha":438,"o":"m 323 584 q 323 628 278 628 q 256 628 239 604 q 222 581 216 541 l 151 74 q 149 62 149 53 q 149 9 194 9 q 216 9 233 33 q 250 57 256 96 l 321 563 q 323 577 323 584 z m 190 -7 q 125 -7 82 58 q 38 123 38 225 q 38 333 73 432 q 109 530 166 587 q 224 644 282 644 q 347 644 391 579 q 434 515 434 412 q 434 243 358 118 q 281 -7 190 -7 z"},"(":{"x_min":0,"x_max":250,"ha":250,"o":"m 299 635 l 296 615 q 210 531 170 306 q 130 81 130 -44 q 130 -99 143 -153 q 157 -207 180 -238 l 175 -260 q 106 -189 71 -92 q 36 6 36 112 q 36 248 107 390 q 177 532 299 635 z"},"C":{"x_min":0,"x_max":333,"ha":333,"o":"m 180 -8 q 117 -8 77 56 q 38 120 38 225 q 38 392 111 518 q 185 644 268 644 q 301 644 325 608 q 340 617 356 636 l 374 636 l 351 473 l 333 473 q 323 628 266 628 q 250 628 235 604 q 221 580 216 541 l 151 74 q 149 62 149 53 q 149 33 159 21 q 170 10 186 10 q 253 10 301 177 l 317 177 l 292 0 l 274 0 l 248 30 q 215 -8 180 -8 z"},"W":{"x_min":0,"x_max":698,"ha":698,"o":"m 595 636 l 593 619 l 580 619 q 557 619 545 602 q 534 584 482 479 l 522 194 l 524 194 l 669 573 q 674 588 674 595 q 674 619 645 619 l 622 619 l 624 636 l 754 636 l 752 619 l 739 619 q 705 619 685 568 l 465 -9 l 427 -9 l 387 285 l 242 -9 l 204 -9 l 118 619 l 78 619 l 80 636 l 282 636 l 280 619 l 239 619 l 303 158 l 305 158 l 383 315 l 341 619 l 301 619 l 303 636 z m 478 508 q 512 576 513 582 q 515 587 515 591 q 515 619 486 619 l 462 619 z"},"A":{"x_min":0,"x_max":448,"ha":448,"o":"m 111 178 l 78 90 q 64 54 64 46 q 64 17 96 17 l 113 17 l 111 0 l -20 0 l -18 17 l -2 17 q 31 17 48 61 l 272 645 l 308 645 l 373 17 l 414 17 l 412 0 l 211 0 l 213 17 l 252 17 l 236 178 z m 234 195 l 210 430 l 208 430 l 118 195 z"},"f":{"x_min":0,"x_max":240,"ha":240,"o":"m 208 410 l 162 83 q 149 -6 119 -73 q 88 -141 49 -176 q 10 -211 -32 -211 q -70 -211 -95 -190 q -119 -169 -119 -138 q -119 -108 -103 -88 q -86 -69 -64 -69 q -44 -69 -31 -83 q -19 -96 -19 -115 q -19 -132 -27 -147 q -36 -163 -43 -169 q -51 -176 -51 -182 q -51 -192 -29 -192 q 0 -192 19 -163 q 38 -134 38 -95 l 35 -13 q 35 15 51 130 l 90 410 l 45 410 l 48 427 l 92 427 q 106 533 162 588 q 217 643 275 643 q 313 643 337 621 q 361 599 361 568 q 361 538 344 518 q 328 499 306 499 q 286 499 273 512 q 261 526 261 545 q 261 562 269 577 q 277 593 285 599 q 293 605 293 612 q 293 617 286 620 q 279 624 272 624 q 244 624 226 607 q 208 590 208 569 q 208 554 212 528 q 216 505 216 492 q 216 467 210 427 l 255 427 l 252 410 z"},"Q":{"x_min":0,"x_max":438,"ha":438,"o":"m 323 584 q 323 628 278 628 q 256 628 239 604 q 222 581 216 541 l 151 74 q 149 62 149 53 q 149 9 194 9 q 216 9 233 33 q 250 57 256 96 l 321 563 q 323 577 323 584 z m 143 3 q 94 25 66 85 q 38 145 38 225 q 38 333 73 432 q 109 530 166 587 q 224 644 282 644 q 347 644 391 579 q 434 515 434 412 q 434 273 381 161 q 329 49 253 10 q 240 -76 240 -84 q 240 -135 282 -135 q 296 -135 304 -131 l 301 -148 q 263 -158 237 -158 q 137 -158 137 -62 q 137 -42 143 3 z"},"w":{"x_min":0,"x_max":583,"ha":583,"o":"m 166 -8 q 127 -8 96 29 q 64 66 64 112 q 64 129 66 145 q 94 343 95 352 q 96 361 96 375 q 96 399 79 399 q 65 399 53 383 q 40 367 32 339 l 15 339 q 43 439 122 439 q 159 439 184 415 q 209 391 209 349 q 209 337 180 132 q 176 104 176 89 q 176 61 184 44 q 192 28 205 28 q 230 28 250 78 q 270 127 284 227 l 312 427 l 428 427 l 392 176 q 379 83 379 68 q 379 50 386 39 q 393 28 404 28 q 426 28 464 74 q 502 120 529 191 q 555 263 555 305 q 555 328 525 337 q 502 343 489 358 q 475 373 475 392 q 475 414 487 427 q 498 439 518 439 q 573 439 573 306 q 573 257 544 178 q 515 100 465 46 q 415 -8 363 -8 q 331 -8 305 17 q 279 41 274 86 q 262 42 232 17 q 203 -8 166 -8 z"},"-":{"x_min":0,"x_max":198,"ha":198,"o":"m 22 261 l 186 261 l 186 171 l 22 171 z"},"E":{"x_min":0,"x_max":354,"ha":354,"o":"m 77 636 l 402 636 l 381 483 l 364 483 q 364 619 279 619 l 242 619 l 204 346 l 226 346 q 304 346 310 436 l 327 436 l 298 231 l 281 231 q 286 259 286 270 q 286 328 227 328 l 201 328 l 157 17 l 189 17 q 277 17 328 176 l 344 176 l 319 0 l -11 0 l -9 17 l 34 17 l 119 619 l 75 619 z"},"s":{"x_min":0,"x_max":302,"ha":302,"o":"m 130 -7 q 80 -7 47 18 q 14 42 14 74 q 14 101 29 119 q 43 136 63 136 q 82 136 93 124 q 104 112 104 95 q 104 70 90 54 q 75 38 75 35 q 75 28 91 19 q 107 10 135 10 q 159 10 179 29 q 199 48 199 73 q 199 102 186 124 q 173 146 128 178 q 85 209 67 239 q 50 268 50 308 q 50 363 90 401 q 131 439 184 439 q 236 439 269 416 q 302 393 302 361 q 302 334 287 316 q 273 299 253 299 q 234 299 223 311 q 212 323 212 340 q 212 366 227 381 q 241 396 241 400 q 241 408 227 414 q 213 421 186 421 q 160 421 143 404 q 126 387 126 362 q 126 340 137 324 q 149 308 188 280 q 239 243 259 209 q 280 176 280 127 q 280 70 234 31 q 188 -7 130 -7 z"},">":{"x_min":0,"x_max":667,"ha":667,"o":"m 83 576 l 613 352 l 613 295 l 83 72 l 83 141 l 527 323 l 83 506 z"},"l":{"x_min":0,"x_max":233,"ha":233,"o":"m 133 -6 q 97 -6 71 18 q 46 42 46 84 q 46 96 48 110 l 119 611 l 77 611 l 80 628 l 144 628 q 200 628 239 636 l 162 89 q 159 68 159 58 q 159 48 164 41 q 169 34 176 34 q 189 34 202 50 q 215 66 223 94 l 240 94 q 211 -6 133 -6 z"},"8":{"x_min":0,"x_max":385,"ha":385,"o":"m 173 331 q 128 349 104 385 q 80 422 80 468 q 80 541 133 593 q 187 644 261 644 q 322 644 360 609 q 397 574 397 517 q 397 394 261 331 q 363 296 363 200 q 363 113 307 53 q 251 -7 169 -7 q 105 -7 64 33 q 23 73 23 136 q 23 206 62 258 q 101 311 173 331 z m 189 436 q 184 402 184 386 q 184 361 191 350 q 199 339 218 339 q 237 339 249 353 q 261 366 276 463 q 291 561 291 584 q 291 627 258 627 q 234 627 223 609 q 211 591 203 532 z m 142 121 q 136 80 136 56 q 136 30 144 20 q 152 10 171 10 q 195 10 208 28 q 221 46 236 153 q 250 259 250 279 q 250 303 241 312 q 232 320 216 320 q 189 320 177 299 q 165 279 155 210 z"},"\\":{"x_min":0,"x_max":375,"ha":375,"o":"m 99 635 l 182 635 l 259 -199 l 176 -199 z"},"e":{"x_min":0,"x_max":389,"ha":389,"o":"m 166 205 q 218 222 245 266 q 272 310 272 371 q 272 421 248 421 q 225 421 207 396 q 189 372 184 333 z m 183 -7 q 123 -7 78 45 q 34 96 34 172 q 34 276 102 357 q 170 439 262 439 q 320 439 353 414 q 385 389 385 349 q 385 233 163 185 q 147 70 147 57 q 147 36 157 24 q 168 11 186 11 q 296 11 337 144 l 353 144 q 312 -7 183 -7 z"},"b":{"x_min":0,"x_max":406,"ha":406,"o":"m 57 214 l 113 611 l 71 611 l 74 628 l 138 628 q 194 628 233 636 l 203 403 q 240 439 280 439 q 324 439 355 395 q 387 350 387 285 q 387 210 358 142 q 328 74 284 34 q 240 -6 186 -6 q 134 -6 93 38 q 52 81 52 161 q 52 179 57 214 z m 246 406 q 228 406 212 387 q 196 368 192 333 l 171 183 q 154 66 154 51 q 154 38 162 29 q 170 20 184 20 q 199 20 211 35 q 224 49 230 73 q 237 98 254 223 q 272 348 272 359 q 272 406 246 406 z"},"%":{"x_min":0,"x_max":698,"ha":698,"o":"m 222 644 q 265 644 297 607 q 329 570 329 515 q 329 441 281 376 q 233 312 176 312 q 133 312 101 349 q 69 386 69 441 q 69 515 117 580 q 165 644 222 644 z m 241 573 q 243 588 243 598 q 243 626 221 626 q 206 626 195 609 q 185 593 181 561 l 166 451 q 155 373 155 358 q 155 330 177 330 q 208 330 216 387 z m 586 644 l 607 644 l 152 -14 l 131 -14 z m 563 319 q 606 319 638 282 q 670 245 670 190 q 670 116 622 51 q 575 -13 517 -13 q 474 -13 442 24 q 410 61 410 116 q 410 190 458 255 q 505 319 563 319 z m 582 248 q 584 263 584 273 q 584 301 562 301 q 547 301 536 284 q 525 268 522 235 l 507 125 q 496 48 496 33 q 496 5 518 5 q 549 5 557 62 z"},"m":{"x_min":0,"x_max":615,"ha":615,"o":"m 275 362 q 276 370 276 376 q 276 400 256 400 q 239 400 218 373 q 196 346 190 296 l 149 0 l 33 0 l 91 410 l 49 410 l 52 427 l 116 427 q 172 427 211 435 l 202 372 q 248 440 306 440 q 338 440 362 420 q 385 400 389 367 q 438 440 497 440 q 534 440 558 416 q 581 392 581 354 q 581 345 544 89 q 541 74 541 58 q 541 48 546 41 q 551 34 558 34 q 571 34 584 50 q 597 66 605 94 l 622 94 q 594 -6 515 -6 q 479 -6 453 18 q 428 42 428 84 q 428 96 466 362 q 467 370 467 376 q 467 400 447 400 q 430 400 409 373 q 388 346 381 296 l 340 0 l 224 0 z"},"#":{"x_min":0,"x_max":668,"ha":668,"o":"m 168 235 l 206 415 l 59 415 l 59 475 l 219 475 l 260 672 l 320 672 l 279 475 l 483 475 l 524 672 l 584 672 l 543 475 l 639 475 l 639 415 l 530 415 l 492 235 l 639 235 l 639 175 l 479 175 l 438 -22 l 378 -22 l 419 175 l 215 175 l 174 -22 l 114 -22 l 155 175 l 59 175 l 59 235 z m 266 415 l 228 235 l 432 235 l 470 415 z"},",":{"x_min":0,"x_max":198,"ha":198,"o":"m 25 -152 l 19 -136 q 75 -104 106 -64 q 137 -24 137 6 q 137 20 127 20 q 123 20 116 13 q 98 -7 68 -7 q 42 -7 28 10 q 13 27 13 56 q 13 89 37 114 q 61 139 95 139 q 128 139 146 115 q 165 91 165 52 q 165 -2 132 -56 q 98 -111 25 -152 z"},"n":{"x_min":0,"x_max":427,"ha":427,"o":"m 202 372 q 249 440 309 440 q 346 440 370 416 q 393 392 393 354 q 393 345 356 89 q 353 74 353 58 q 353 48 358 41 q 363 34 370 34 q 383 34 396 50 q 409 66 417 94 l 434 94 q 406 -6 327 -6 q 291 -6 265 18 q 240 42 240 84 q 240 96 278 362 q 279 370 279 376 q 279 400 259 400 q 242 400 219 373 q 196 345 190 295 l 149 0 l 33 0 l 91 410 l 49 410 l 52 427 l 116 427 q 172 427 211 435 z"},"h":{"x_min":0,"x_max":427,"ha":427,"o":"m 202 372 q 249 440 309 440 q 346 440 370 416 q 393 392 393 354 q 393 345 356 89 q 353 74 353 58 q 353 48 358 41 q 363 34 370 34 q 383 34 396 50 q 409 66 417 94 l 434 94 q 406 -6 327 -6 q 291 -6 265 18 q 240 42 240 84 q 240 96 278 362 q 279 370 279 376 q 279 400 259 400 q 242 400 219 373 q 196 345 190 295 l 149 0 l 33 0 l 119 611 l 77 611 l 80 628 l 144 628 q 200 628 239 636 z"},"z":{"x_min":0,"x_max":344,"ha":344,"o":"m 37 278 l 114 439 q 146 424 196 413 q 245 401 273 401 q 292 401 298 405 q 303 408 303 416 q 303 439 325 439 q 345 439 345 422 q 345 393 306 348 l 97 112 l 99 110 q 115 118 138 118 q 172 118 236 87 q 250 80 264 80 q 284 80 294 90 q 305 100 305 111 q 305 123 286 125 q 267 127 255 138 q 243 149 243 167 q 243 189 256 201 q 268 213 286 213 q 328 213 328 143 q 328 81 283 34 q 238 -12 188 -12 q 157 -12 118 13 q 84 35 57 35 q 46 35 46 28 q 46 26 48 21 q 49 17 49 15 q 49 -12 22 -12 q 11 -12 4 -4 q -3 3 -3 15 q -3 38 29 73 l 246 317 l 244 319 q 203 313 153 313 q 120 313 79 323 l 56 278 z"},"B":{"x_min":0,"x_max":438,"ha":438,"o":"m 76 636 l 292 636 q 360 636 400 596 q 441 557 441 503 q 441 443 397 395 q 354 346 285 326 l 285 324 q 407 300 407 194 q 407 119 352 59 q 296 0 208 0 l -15 0 l -13 16 l 34 16 l 119 619 l 74 619 z m 242 619 l 202 334 l 239 334 q 262 334 277 348 q 292 361 295 388 l 309 491 q 320 566 320 581 q 320 619 286 619 z m 200 317 l 157 17 l 199 17 q 216 17 229 25 q 241 34 247 48 q 253 62 256 83 l 270 181 q 281 257 281 270 q 281 317 241 317 z"},"K":{"x_min":0,"x_max":458,"ha":458,"o":"m 74 636 l 289 636 l 287 619 l 242 619 l 202 332 l 204 332 l 325 505 q 384 591 387 596 q 389 602 389 606 q 389 619 373 619 l 348 619 l 350 636 l 463 636 l 461 619 q 426 619 407 592 l 298 436 l 394 17 l 428 17 l 426 0 l 233 0 l 235 17 l 270 17 l 202 319 l 200 319 l 157 16 l 189 16 l 187 0 l -16 0 l -14 17 l 33 17 l 118 619 l 72 619 z"},"R":{"x_min":0,"x_max":458,"ha":458,"o":"m 78 636 l 318 636 q 373 636 411 601 q 448 566 448 515 q 448 455 408 407 q 368 359 297 345 l 297 343 q 350 340 376 314 q 403 289 403 253 q 403 244 378 65 q 377 59 377 49 q 377 32 391 32 q 410 32 420 74 l 438 70 q 418 -5 341 -5 q 305 -5 281 20 q 257 45 257 86 q 257 101 282 279 q 283 283 283 291 q 283 335 236 335 l 202 335 l 157 17 l 202 17 l 200 0 l -11 0 l -9 17 l 35 17 l 120 619 l 76 619 z m 242 619 l 204 352 l 244 352 q 262 352 276 364 q 291 376 296 391 q 301 405 312 483 q 323 561 323 567 q 323 619 280 619 z"},"T":{"x_min":0,"x_max":406,"ha":406,"o":"m 79 636 l 451 636 l 428 468 l 411 468 l 412 486 q 412 619 325 619 l 240 17 l 287 17 l 285 0 l 69 0 l 72 17 l 116 17 l 201 619 q 110 614 73 467 l 56 467 z"},"P":{"x_min":0,"x_max":427,"ha":427,"o":"m 73 636 l 269 636 q 354 636 400 596 q 447 556 447 492 q 447 412 385 356 q 324 301 225 301 l 196 301 l 156 17 l 201 17 l 199 0 l -17 0 l -15 17 l 33 17 l 118 619 l 71 619 z m 241 619 l 199 319 l 229 319 q 253 319 275 336 q 297 353 309 448 q 322 542 322 557 q 322 586 314 599 q 307 612 293 616 q 280 619 241 619 z"},"|":{"x_min":0,"x_max":527,"ha":527,"o":"m 246 633 l 311 633 l 311 -198 l 246 -198 z"},"t":{"x_min":0,"x_max":260,"ha":260,"o":"m 143 -6 q 106 -6 81 18 q 56 42 56 84 q 56 96 100 414 l 49 414 l 52 431 l 102 431 l 116 531 l 235 551 l 218 431 l 269 431 l 266 414 l 216 414 l 171 89 q 168 74 168 58 q 168 48 173 41 q 178 34 185 34 q 198 34 211 50 q 224 66 232 94 l 249 94 q 221 -6 143 -6 z"},"M":{"x_min":0,"x_max":510,"ha":510,"o":"m 77 636 l 256 636 l 271 308 l 273 308 l 380 636 l 560 636 l 558 619 l 514 619 l 429 17 l 472 17 l 470 0 l 258 0 l 260 17 l 306 17 l 389 605 l 387 605 l 190 0 l 165 0 l 137 616 l 135 616 l 57 67 q 56 62 56 50 q 56 17 95 17 l 93 0 l -13 0 l -11 17 q 13 17 24 28 q 35 38 39 67 l 117 619 l 75 619 z"},"g":{"x_min":0,"x_max":427,"ha":427,"o":"m 359 376 q 363 413 379 432 q 395 452 415 452 q 434 452 446 439 q 458 426 458 406 q 458 356 422 356 q 400 356 393 380 q 389 392 384 392 q 373 392 373 354 l 375 311 q 375 238 316 180 q 257 122 190 122 q 182 122 163 125 q 140 127 129 127 q 97 127 74 114 q 52 100 52 82 q 52 71 61 66 q 70 62 101 62 l 173 64 l 277 64 q 329 64 360 35 q 390 5 390 -46 q 390 -125 323 -169 q 257 -212 143 -212 q 68 -212 24 -190 q -21 -168 -21 -132 q -21 -76 71 -40 q 8 -17 8 43 q 8 79 40 109 q 72 138 118 141 q 57 177 57 251 q 57 324 116 382 q 174 440 242 440 q 278 440 310 423 q 341 407 359 376 z m 268 362 q 270 376 270 388 q 270 403 261 413 q 253 422 239 422 q 218 422 204 405 q 189 388 186 356 q 182 323 172 258 q 162 192 162 174 q 162 159 171 149 q 179 140 193 140 q 213 140 227 156 q 241 172 245 199 z m 113 -45 l 95 -44 q 87 -44 62 -68 q 36 -93 36 -122 q 36 -155 68 -174 q 101 -194 143 -194 q 235 -194 295 -164 q 354 -134 354 -90 q 354 -45 289 -45 z"},"j":{"x_min":0,"x_max":229,"ha":229,"o":"m 31 -94 q 27 -71 27 -58 q 27 -35 31 -7 l 91 410 l 49 410 l 52 427 l 116 427 q 172 427 211 435 l 148 -13 q 136 -99 82 -154 q 27 -209 -32 -209 q -70 -209 -94 -187 q -118 -165 -118 -134 q -118 -104 -102 -84 q -85 -65 -63 -65 q -42 -65 -30 -78 q -18 -92 -18 -111 q -18 -128 -26 -143 q -35 -159 -42 -165 q -50 -172 -50 -178 q -50 -183 -43 -186 q -37 -190 -29 -190 q -1 -190 17 -173 q 35 -156 35 -135 q 35 -120 31 -94 z m 99 568 q 99 595 118 614 q 137 633 164 633 q 191 633 210 614 q 229 595 229 568 q 229 541 210 522 q 191 503 164 503 q 137 503 118 522 q 99 541 99 568 z"},"i":{"x_min":0,"x_max":233,"ha":233,"o":"m 133 -6 q 97 -6 71 18 q 46 42 46 84 q 46 97 49 118 l 91 410 l 49 410 l 52 427 l 116 427 q 172 427 211 435 l 162 89 q 159 74 159 58 q 159 48 164 41 q 169 34 176 34 q 189 34 202 50 q 215 66 223 94 l 240 94 q 211 -6 133 -6 z m 99 568 q 99 595 118 614 q 137 633 164 633 q 191 633 210 614 q 229 595 229 568 q 229 541 210 522 q 191 503 164 503 q 137 503 118 522 q 99 541 99 568 z"},"y":{"x_min":0,"x_max":396,"ha":396,"o":"m 247 181 q 292 339 320 389 q 348 439 390 439 q 412 439 426 423 q 441 406 441 382 q 441 358 427 344 q 412 331 392 331 q 376 331 357 348 q 346 358 339 358 q 328 358 321 345 q 313 333 281 223 q 237 78 196 -13 q 156 -103 109 -157 q 62 -211 22 -211 q -8 -211 -28 -193 q -48 -175 -48 -146 q -48 -120 -31 -101 q -15 -82 9 -82 q 36 -82 53 -101 q 74 -125 84 -125 q 124 -125 170 -20 l 95 339 q 87 375 80 387 q 74 399 63 399 q 35 399 13 339 l -4 339 q 32 439 108 439 q 193 439 210 358 z"},"@":{"x_min":0,"x_max":677,"ha":677,"o":"m 534 481 q 484 313 473 278 q 462 242 462 219 q 462 208 469 199 q 476 190 488 190 q 539 190 585 253 q 631 316 631 406 q 631 488 567 555 q 503 622 399 622 q 277 622 193 522 q 108 422 108 293 q 108 168 181 92 q 254 15 372 15 q 461 15 545 67 q 629 119 660 207 l 682 207 q 649 107 560 50 q 471 -7 370 -7 q 239 -7 148 82 q 56 170 56 302 q 56 445 157 544 q 258 644 396 644 q 511 644 583 572 q 655 500 655 404 q 655 309 600 234 q 544 158 462 158 q 379 158 379 214 q 379 234 389 268 l 387 269 q 322 158 258 158 q 229 158 212 183 q 195 207 195 238 q 195 289 228 348 q 261 406 310 445 q 359 484 397 484 q 428 484 438 441 l 439 441 l 449 474 z m 424 417 q 424 452 398 452 q 362 452 326 391 q 290 329 290 279 q 290 240 320 240 q 353 240 388 307 q 424 375 424 417 z"},".":{"x_min":0,"x_max":198,"ha":198,"o":"m 13 66 q 13 96 35 118 q 56 139 86 139 q 116 139 138 118 q 159 96 159 66 q 159 36 138 15 q 116 -7 86 -7 q 56 -7 34 14 q 13 36 13 66 z"},"p":{"x_min":0,"x_max":406,"ha":406,"o":"m 88 410 l 46 410 l 49 427 l 113 427 q 169 427 208 435 l 203 403 q 240 439 280 439 q 324 439 355 395 q 387 350 387 285 q 387 210 358 142 q 328 74 284 34 q 240 -6 186 -6 q 163 -6 147 9 l 120 -187 l 171 -187 l 168 -204 l -40 -204 l -37 -187 l 4 -187 z m 246 406 q 228 406 212 387 q 196 368 192 333 l 171 183 q 154 66 154 51 q 154 38 162 29 q 170 20 184 20 q 199 20 211 35 q 224 49 230 73 q 237 98 254 223 q 272 348 272 359 q 272 406 246 406 z"},"X":{"x_min":0,"x_max":427,"ha":427,"o":"m 269 444 q 351 585 354 591 q 357 597 357 604 q 357 619 340 619 l 322 619 l 324 636 l 436 636 l 434 619 q 412 619 400 615 q 388 611 380 601 q 373 591 340 534 l 274 419 l 350 17 l 390 17 l 388 0 l 189 0 l 191 17 l 226 17 l 181 257 l 102 121 q 68 62 65 53 q 62 44 62 37 q 62 17 80 17 l 96 17 l 94 0 l -14 0 l -12 17 q 3 17 13 22 q 24 27 31 37 q 39 46 85 126 l 176 283 l 112 619 l 73 619 l 75 636 l 273 636 l 271 619 l 236 619 z"},"*":{"x_min":0,"x_max":385,"ha":385,"o":"m 242 448 q 226 429 216 371 q 211 335 198 320 q 186 305 164 305 q 145 305 130 319 q 115 333 115 353 q 115 370 126 383 q 138 395 166 410 q 208 433 226 457 q 215 462 200 462 q 179 462 155 458 q 140 455 124 455 q 99 455 83 468 q 67 481 67 501 q 67 521 81 535 q 95 549 114 549 q 139 549 178 513 q 213 479 233 474 q 232 505 211 545 q 194 578 194 598 q 194 618 207 631 q 219 643 240 643 q 287 643 287 596 q 287 580 272 548 q 251 502 251 475 l 251 474 q 279 484 310 516 q 328 534 339 541 q 351 548 369 548 q 388 548 400 535 q 413 521 413 502 q 413 456 356 456 q 341 456 323 459 q 304 462 287 462 q 276 462 257 457 q 276 432 314 413 q 369 386 369 352 q 369 333 355 319 q 341 305 320 305 q 297 305 285 322 q 273 338 267 377 q 258 428 242 448 z"},"Y":{"x_min":0,"x_max":458,"ha":458,"o":"m 77 636 l 295 636 l 293 619 l 246 619 l 307 318 l 309 318 l 395 499 q 435 583 437 589 q 439 596 439 603 q 439 619 419 619 l 402 619 l 404 636 l 512 636 l 510 619 q 498 619 489 617 q 479 614 472 608 q 465 603 458 593 q 454 586 438 554 l 337 339 q 314 291 300 193 l 275 16 l 321 16 l 319 0 l 104 0 l 106 16 l 151 16 l 189 288 l 121 619 l 75 619 z"},"c":{"x_min":0,"x_max":365,"ha":365,"o":"m 183 -7 q 123 -7 78 45 q 34 96 34 172 q 34 273 100 356 q 166 439 247 439 q 296 439 327 412 q 357 386 357 348 q 357 309 336 286 q 315 262 287 262 q 266 262 252 276 q 238 291 238 311 q 238 334 253 351 q 268 367 293 372 q 316 376 316 385 q 316 399 298 410 q 279 421 253 421 q 227 421 207 395 q 188 368 182 320 q 176 272 162 177 q 147 81 147 57 q 147 36 157 24 q 168 11 186 11 q 274 11 324 137 l 340 137 q 292 -7 183 -7 z"},"!":{"x_min":0,"x_max":198,"ha":198,"o":"m 13 66 q 13 96 35 118 q 56 139 86 139 q 116 139 138 118 q 159 96 159 66 q 159 36 138 15 q 116 -7 86 -7 q 56 -7 34 14 q 13 36 13 66 z m 110 188 l 94 188 q 99 237 99 280 q 99 342 89 431 q 83 489 83 517 q 83 576 107 609 q 132 642 169 642 q 196 642 210 622 q 225 603 225 569 q 225 526 182 419 q 131 291 110 188 z"},"/":{"x_min":0,"x_max":375,"ha":375,"o":"m 296 635 l 383 635 l 97 -200 l 10 -200 z"},"[":{"x_min":0,"x_max":250,"ha":250,"o":"m 114 632 l 298 632 l 296 616 l 208 616 l 88 -233 l 177 -233 l 175 -250 l -10 -250 z"},"6":{"x_min":0,"x_max":385,"ha":385,"o":"m 407 644 l 404 626 q 327 608 263 538 q 200 467 177 348 l 179 346 q 220 386 263 386 q 312 386 341 347 q 370 308 370 243 q 370 147 307 70 q 244 -7 170 -7 q 107 -7 71 45 q 34 98 34 187 q 34 369 150 498 q 267 627 407 644 z m 226 353 q 202 353 186 330 q 169 308 167 285 l 149 166 q 135 70 135 61 q 135 10 172 10 q 214 10 224 73 l 256 299 q 257 303 257 314 q 257 353 226 353 z"},"r":{"x_min":0,"x_max":344,"ha":344,"o":"m 202 363 q 238 435 296 435 q 326 435 344 418 q 361 401 361 372 q 361 342 342 320 q 323 299 295 299 q 275 299 262 312 q 249 325 249 343 q 249 374 280 398 q 287 404 287 406 q 287 413 276 413 q 253 413 223 368 q 194 322 185 255 l 149 0 l 33 0 l 91 410 l 49 410 l 52 427 l 116 427 q 171 427 210 435 l 200 363 z"},"2":{"x_min":0,"x_max":385,"ha":385,"o":"m 10 58 q 155 213 179 240 q 203 268 229 312 q 255 356 270 414 q 284 472 284 542 q 284 586 270 604 q 256 621 224 621 q 194 621 162 599 q 131 577 131 563 q 131 548 150 545 q 180 542 194 529 q 207 517 207 489 q 207 459 185 438 q 162 417 136 417 q 107 417 91 435 q 74 453 74 481 q 74 546 127 594 q 180 641 254 641 q 321 641 361 600 q 401 559 401 500 q 401 441 366 386 q 331 331 250 264 q 138 171 67 91 l 275 91 q 304 91 317 105 q 330 120 339 152 l 355 152 l 320 0 l 2 0 z"},"{":{"x_min":0,"x_max":394,"ha":394,"o":"m 365 631 l 365 609 q 270 590 270 516 q 270 485 282 437 q 294 388 294 357 q 294 301 254 256 q 215 211 134 193 l 134 191 q 222 167 259 123 q 295 79 295 30 q 295 5 283 -46 q 271 -96 271 -126 q 271 -209 365 -226 l 365 -248 q 360 -249 349 -249 q 271 -249 218 -201 q 164 -154 164 -86 q 164 -59 179 -2 q 190 38 190 71 q 190 161 95 177 l 95 206 q 190 223 190 316 q 190 348 180 386 q 165 443 165 469 q 165 507 187 544 q 208 582 252 606 q 297 631 365 631 z"},"9":{"x_min":0,"x_max":385,"ha":385,"o":"m 22 -7 l 25 11 q 102 28 166 99 q 229 169 252 289 l 250 291 q 209 251 166 251 q 117 251 88 290 q 59 329 59 394 q 59 490 122 567 q 185 644 259 644 q 321 644 358 592 q 395 539 395 450 q 395 335 345 235 q 294 135 201 68 q 108 1 22 -7 z m 203 284 q 227 284 243 307 q 259 329 263 352 l 280 471 q 294 566 294 576 q 294 627 257 627 q 215 627 205 564 l 173 338 q 172 334 172 323 q 172 284 203 284 z"}," ":{"x_min":0,"x_max":193,"ha":193,"o":""},"I":{"x_min":0,"x_max":240,"ha":240,"o":"m 81 636 l 290 636 l 288 619 l 244 619 l 159 17 l 204 17 l 202 0 l -7 0 l -5 17 l 36 17 l 121 619 l 79 619 z"},"H":{"x_min":0,"x_max":458,"ha":458,"o":"m 80 636 l 282 636 l 280 619 l 244 619 l 208 362 l 305 362 l 341 619 l 307 619 l 309 636 l 509 636 l 507 619 l 464 619 l 379 17 l 422 17 l 420 0 l 220 0 l 222 17 l 256 17 l 302 344 l 205 344 l 159 17 l 195 17 l 193 0 l -9 0 l -7 17 l 36 17 l 121 619 l 78 619 z"},"4":{"x_min":0,"x_max":385,"ha":385,"o":"m 311 641 l 363 641 l 298 176 l 351 176 l 358 232 l 374 232 l 356 103 l 340 103 l 348 159 l 294 159 l 274 17 l 338 17 l 336 0 l 97 0 l 99 17 l 163 17 l 183 159 l 11 159 l 14 177 z m 227 483 l 34 176 l 186 176 l 229 483 z"},"~":{"x_min":0,"x_max":667,"ha":667,"o":"m 587 398 l 612 398 q 610 330 575 290 q 540 250 487 250 q 458 250 428 259 q 398 269 303 308 q 228 339 197 339 q 127 339 110 251 l 85 251 q 88 330 125 365 q 163 399 205 399 q 234 399 271 387 q 308 376 393 340 q 465 309 497 309 q 576 309 587 398 z"},"D":{"x_min":0,"x_max":438,"ha":438,"o":"m 77 636 l 280 636 q 352 636 397 577 q 442 518 442 415 q 442 251 367 126 q 293 0 183 0 l -12 0 l -10 16 l 35 16 l 120 619 l 75 619 z m 242 619 l 157 17 l 185 17 q 252 17 265 110 l 326 543 q 329 564 329 572 q 329 619 280 619 z"},"^":{"x_min":0,"x_max":581,"ha":581,"o":"m 328 676 l 529 325 l 455 325 l 311 575 l 166 325 l 92 325 l 293 676 z"},"0":{"x_min":0,"x_max":385,"ha":385,"o":"m 259 644 q 317 644 353 581 q 389 518 389 412 q 389 302 357 204 q 325 106 273 50 q 221 -7 167 -7 q 109 -7 73 56 q 37 120 37 225 q 37 334 69 432 q 101 530 153 587 q 206 644 259 644 z m 291 553 q 293 567 293 574 q 293 628 255 628 q 210 628 198 541 l 135 84 q 133 72 133 63 q 133 9 171 9 q 216 9 228 96 z"},"F":{"x_min":0,"x_max":354,"ha":354,"o":"m 370 484 q 370 555 347 587 q 324 619 285 619 l 246 619 l 208 347 l 233 347 q 258 347 285 365 q 311 383 315 437 l 332 437 l 304 233 l 288 233 q 291 251 291 263 q 291 293 277 311 q 263 329 240 329 l 205 329 l 161 17 l 210 17 l 208 0 l -9 0 l -7 17 l 38 17 l 123 619 l 77 619 l 79 636 l 407 636 l 386 484 z"},"`":{"x_min":0,"x_max":333,"ha":333,"o":"m 118 643 l 227 643 l 255 474 l 239 474 z"},"k":{"x_min":0,"x_max":427,"ha":427,"o":"m 262 212 q 262 238 245 249 q 219 224 196 224 q 186 224 181 227 l 149 0 l 33 0 l 119 611 l 77 611 l 80 628 l 144 628 q 200 628 239 636 l 186 259 q 206 273 231 273 l 241 273 q 263 304 283 352 q 319 439 372 439 q 399 439 417 420 q 435 400 435 372 q 435 353 423 339 q 411 325 390 325 q 370 325 358 337 q 347 349 347 365 q 347 384 358 395 q 368 405 368 410 q 368 419 358 419 q 330 419 301 345 q 286 304 262 270 q 366 248 366 170 q 366 160 359 111 q 353 69 353 61 q 353 34 370 34 q 400 34 417 94 l 434 94 q 406 -6 326 -6 q 288 -6 263 16 q 238 39 238 75 q 238 99 250 148 q 262 193 262 212 z"},"u":{"x_min":0,"x_max":427,"ha":427,"o":"m 236 69 q 191 -4 125 -4 q 86 -4 64 19 q 41 42 41 81 q 41 90 86 410 l 44 410 l 47 427 l 111 427 q 167 427 206 435 l 159 108 q 154 72 154 66 q 154 40 180 40 q 196 40 216 69 q 237 97 242 134 l 284 427 l 400 427 l 351 89 q 348 74 348 58 q 348 48 353 41 q 358 34 365 34 q 378 34 391 50 q 404 66 412 94 l 429 94 q 401 -6 322 -6 q 290 -6 266 14 q 241 33 236 69 z"},"]":{"x_min":0,"x_max":250,"ha":250,"o":"m 136 -250 l -48 -250 l -46 -234 l 42 -234 l 162 615 l 73 615 l 75 632 l 260 632 z"},"U":{"x_min":0,"x_max":396,"ha":396,"o":"m 73 636 l 287 636 l 285 619 l 239 619 l 163 78 q 162 73 162 65 q 162 42 175 28 q 188 14 210 14 q 251 14 278 43 q 304 71 311 121 l 376 585 l 376 589 q 376 600 367 610 q 358 619 347 619 l 336 619 l 338 636 l 445 636 l 443 619 l 432 619 q 420 619 408 609 q 395 598 393 585 l 327 119 q 318 54 280 24 q 242 -7 171 -7 q 115 -7 80 27 q 45 61 45 111 q 45 127 49 155 l 115 619 l 70 619 z"},"o":{"x_min":0,"x_max":417,"ha":417,"o":"m 34 172 q 34 273 100 356 q 166 439 247 439 q 307 439 352 387 q 396 336 396 260 q 396 158 330 76 q 264 -7 183 -7 q 123 -7 78 45 q 34 96 34 172 z m 280 340 q 283 361 283 375 q 283 396 273 408 q 263 421 246 421 q 222 421 205 395 q 188 368 182 320 q 176 271 162 176 q 147 81 147 57 q 147 36 157 23 q 167 11 184 11 q 207 11 224 35 q 240 60 246 99 z"},"N":{"x_min":0,"x_max":448,"ha":448,"o":"m 67 636 l 240 636 l 352 114 l 354 114 l 417 562 q 420 586 420 587 q 420 619 383 619 l 365 619 l 367 636 l 500 636 l 498 619 l 480 619 q 447 619 443 593 l 360 0 l 252 0 l 134 554 l 132 554 l 64 74 q 63 68 63 57 q 63 17 94 17 l 116 17 l 114 0 l -11 0 l -9 17 q 17 17 27 27 q 37 37 40 60 l 119 619 l 65 619 z"},"+":{"x_min":0,"x_max":667,"ha":667,"o":"m 82 355 l 315 355 l 315 589 l 379 589 l 379 355 l 614 355 l 614 291 l 379 291 l 379 59 l 315 59 l 315 291 l 82 291 z"},"G":{"x_min":0,"x_max":438,"ha":438,"o":"m 364 472 q 352 627 279 627 q 255 627 239 604 q 222 582 216 541 l 151 74 q 149 62 149 53 q 149 34 160 22 q 170 10 187 10 q 207 10 222 25 q 236 41 240 68 l 268 261 l 222 261 l 224 278 l 438 278 l 436 261 l 390 261 l 364 76 q 331 36 281 14 q 230 -8 192 -8 q 118 -8 78 53 q 38 114 38 225 q 38 333 72 431 q 106 529 160 586 q 215 644 268 644 q 321 644 353 601 q 376 621 385 636 l 404 636 l 381 472 z"},"q":{"x_min":0,"x_max":406,"ha":406,"o":"m 228 100 l 249 250 q 266 367 266 382 q 266 395 258 404 q 250 413 236 413 q 221 413 209 398 q 197 383 190 359 q 183 335 166 210 q 148 84 148 74 q 148 27 174 27 q 192 27 208 46 q 224 65 228 100 z m 217 26 q 185 -6 140 -6 q 96 -6 65 39 q 33 83 33 148 q 33 223 62 291 q 92 359 136 399 q 180 439 234 439 q 262 439 275 416 l 282 431 l 389 431 l 303 -187 l 343 -187 l 340 -204 l 132 -204 l 135 -187 l 187 -187 z"},"d":{"x_min":0,"x_max":412,"ha":412,"o":"m 228 100 l 249 250 q 266 367 266 382 q 266 395 258 404 q 250 413 236 413 q 221 413 209 398 q 197 383 190 359 q 183 335 166 210 q 148 84 148 74 q 148 27 174 27 q 192 27 208 46 q 224 65 228 100 z m 235 51 q 202 -6 140 -6 q 96 -6 65 39 q 33 83 33 148 q 33 223 62 291 q 92 359 136 399 q 180 439 234 439 q 257 439 273 424 l 298 611 l 256 611 l 259 628 l 323 628 q 379 628 418 636 l 341 89 q 338 74 338 58 q 338 48 343 41 q 348 34 355 34 q 368 34 381 50 q 394 66 402 94 l 419 94 q 391 -6 312 -6 q 252 -6 235 51 z"},"1":{"x_min":0,"x_max":385,"ha":385,"o":"m 135 628 l 167 628 q 190 628 218 630 q 246 632 267 635 l 306 641 l 319 641 l 231 17 l 298 17 l 296 0 l 46 0 l 48 17 l 118 17 l 202 610 l 133 610 z"},"5":{"x_min":0,"x_max":385,"ha":385,"o":"m 121 368 q 159 383 201 383 q 276 383 320 341 q 364 298 364 227 q 364 128 299 61 q 235 -7 140 -7 q 87 -7 53 23 q 20 53 20 99 q 20 132 42 156 q 64 180 94 180 q 149 180 149 123 q 149 79 99 57 q 78 48 78 38 q 78 28 96 20 q 114 11 137 11 q 202 11 223 98 q 244 184 244 259 q 244 314 228 338 q 211 363 175 363 q 149 363 120 350 q 108 345 101 345 q 98 345 98 348 q 98 348 119 473 l 141 604 q 142 610 145 615 q 149 620 155 620 l 349 620 q 395 620 400 644 l 415 644 q 398 575 379 552 q 360 529 335 529 l 147 529 z"}}}
